HIERARCHY
ROOT Hips
{
	OFFSET 0.000000 0.000000 0.000000
	CHANNELS 6 Xposition Yposition Zposition Yrotation Xrotation Zrotation
	JOINT Chest
	{
		OFFSET 0.000000 -0.009281 11.569106
		CHANNELS 3 Yrotation Xrotation Zrotation
		JOINT Chest2
		{
			OFFSET -0.000000 0.016865 9.269641
			CHANNELS 3 Yrotation Xrotation Zrotation
			JOINT Chest3
			{
				OFFSET -0.000000 0.000001 8.374491
				CHANNELS 3 Yrotation Xrotation Zrotation
				JOINT Chest4
				{
					OFFSET -0.000000 0.000001 8.374493
					CHANNELS 3 Yrotation Xrotation Zrotation
					JOINT Neck
					{
						OFFSET -0.000000 0.000002 12.152554
						CHANNELS 3 Yrotation Xrotation Zrotation
						JOINT Head
						{
							OFFSET -0.000000 0.040101 7.802319
							CHANNELS 3 Yrotation Xrotation Zrotation
							End Site
							{
								OFFSET -0.000000 0.020947 14.853096
							}
						}
					}
					JOINT RightCollar
					{
						OFFSET 2.894404 0.000001 6.791374
						CHANNELS 3 Yrotation Xrotation Zrotation
						JOINT RightShoulder
						{
							OFFSET 13.574684 0.000001 0.000000
							CHANNELS 3 Yrotation Xrotation Zrotation
							JOINT RightElbow
							{
								OFFSET 23.923903 0.000002 0.000000
								CHANNELS 3 Yrotation Xrotation Zrotation
								JOINT RightWrist
								{
									OFFSET 19.846718 0.012767 0.000000
									CHANNELS 3 Yrotation Xrotation Zrotation
									End Site
									{
										OFFSET 14.973145 0.000001 0.000000
									}
								}
							}
						}
					}
					JOINT LeftCollar
					{
						OFFSET -2.894404 0.000001 6.791374
						CHANNELS 3 Yrotation Xrotation Zrotation
						JOINT LeftShoulder
						{
							OFFSET -13.574684 -0.000001 0.000000
							CHANNELS 3 Yrotation Xrotation Zrotation
							JOINT LeftElbow
							{
								OFFSET -23.923903 -0.000002 0.000000
								CHANNELS 3 Yrotation Xrotation Zrotation
								JOINT LeftWrist
								{
									OFFSET -19.846718 0.012763 0.000000
									CHANNELS 3 Yrotation Xrotation Zrotation
									End Site
									{
										OFFSET -14.973145 -0.000001 0.000000
									}
								}
							}
						}
					}
				}
			}
		}
	}
	JOINT RightHip
	{
		OFFSET 9.469263 0.004643 0.045487
		CHANNELS 3 Yrotation Xrotation Zrotation
		JOINT RightKnee
		{
			OFFSET 0.000000 0.002661 -40.478676
			CHANNELS 3 Yrotation Xrotation Zrotation
			JOINT RightAnkle
			{
				OFFSET 0.000000 0.049106 -35.224068
				CHANNELS 3 Yrotation Xrotation Zrotation
				JOINT RightToe
				{
					OFFSET -0.000001 12.539529 -6.151390
					CHANNELS 3 Yrotation Xrotation Zrotation
					End Site
					{
						OFFSET -0.000001 5.044994 -1.291870
					}
				}
			}
		}
	}
	JOINT LeftHip
	{
		OFFSET -9.469263 0.004641 0.045487
		CHANNELS 3 Yrotation Xrotation Zrotation
		JOINT LeftKnee
		{
			OFFSET 0.000000 0.002661 -40.478676
			CHANNELS 3 Yrotation Xrotation Zrotation
			JOINT LeftAnkle
			{
				OFFSET 0.000000 0.049106 -35.224068
				CHANNELS 3 Yrotation Xrotation Zrotation
				JOINT LeftToe
				{
					OFFSET -0.000001 12.539529 -6.151390
					CHANNELS 3 Yrotation Xrotation Zrotation
					End Site
					{
						OFFSET -0.000001 5.044994 -1.291870
					}
				}
			}
		}
	}
}
MOTION
Frames: 14
Frame Time: 0.016667
-132.935120 68.362503 79.740524 9.985060 -11.879087 -152.967646 1.532954 -1.615418 3.788864 0.243362 -0.861369 1.544570 0.243362 -0.861368 1.544565 0.184697 -0.645415 1.158744 5.153847 -20.305056 0.730490 9.602776 -1.734026 2.877980 11.774411 -3.279934 -3.246671 54.583549 -12.892250 22.179969 -9.804926 -35.120187 -12.026623 -17.127469 -4.970233 6.630613 -8.484690 -2.187329 -1.946633 -85.046736 10.169279 -1.178969 6.028756 24.884034 2.851909 16.077061 10.400928 -27.197805 11.546358 -6.839894 -8.057204 6.215667 -15.443823 -1.933174 -2.195397 14.442804 0.027292 0.483575 1.209803 -0.281078 3.363082 24.112683 -3.375367 -2.776576 -24.686476 9.707798 13.371559 -15.704478 -2.106516 -0.438841 11.734872 -0.148219 
-132.094177 66.750237 79.789726 9.331456 -11.802926 -152.165618 1.497645 -1.533102 3.790250 0.348355 -0.946621 1.586312 0.348355 -0.946621 1.586313 0.263720 -0.709068 1.190246 4.559832 -20.468634 0.859893 8.552864 -2.008166 2.925557 11.852183 -3.277364 -2.965974 54.642176 -12.747687 25.476788 -9.276050 -33.724636 -10.427087 -19.727048 -3.589254 8.656519 -8.502706 -1.887703 -1.616588 -84.678807 11.129232 0.869759 8.113813 25.578367 5.365675 17.179720 10.995054 -26.913413 11.228631 -8.611761 -8.872546 5.886143 -14.772255 -1.498078 -1.874259 14.440062 -0.024280 0.355357 1.497797 -0.184789 3.003111 23.213800 -2.826945 -2.684411 -18.972189 9.643627 11.392701 -16.542293 -1.396362 2.309943 7.251541 -0.050623 
-131.183899 65.145569 79.837982 8.673383 -11.699122 -151.466207 1.465695 -1.421418 3.799089 0.460061 -1.018832 1.627440 0.460063 -1.018832 1.627438 0.347753 -0.762906 1.221316 3.935837 -20.655020 1.048121 7.465866 -2.329017 3.071563 11.909645 -3.379821 -2.673253 55.004524 -12.027839 28.521393 -8.487999 -32.177291 -8.369506 -22.267428 -1.848422 10.870318 -8.492316 -1.453960 -1.198151 -84.112919 12.464950 3.162387 9.911298 25.883306 7.569845 18.284439 11.545582 -26.461956 10.802466 -10.228133 -9.434859 5.645772 -14.418635 -0.982990 -1.526207 14.306886 -0.236023 0.225567 1.947700 -0.065238 2.985553 21.663275 -2.063864 -2.695019 -12.818880 10.196544 9.765323 -16.785091 -1.312103 3.437878 1.994909 -0.202400 
-130.200256 63.523918 79.896614 7.952061 -11.610307 -150.913235 1.474602 -1.378788 3.860692 0.547868 -1.051049 1.659238 0.547869 -1.051049 1.659239 0.413746 -0.786808 1.245335 3.306046 -20.880252 1.289902 6.383330 -2.726458 3.313126 11.939405 -3.444192 -2.563211 55.716845 -11.281159 31.276840 -7.504711 -30.441057 -6.021914 -24.435608 0.155250 13.399118 -8.489384 -1.073727 -0.791472 -83.240834 14.185949 5.621692 11.352811 25.909807 9.375364 19.209629 11.919391 -25.858398 10.197466 -11.688429 -9.723890 5.475288 -14.545170 -0.388728 -1.095881 14.032865 -0.509353 -0.120718 3.844636 0.024752 3.037467 19.375946 -0.355882 -2.621213 -6.981100 9.887134 8.050440 -16.338475 -1.560854 4.409727 -1.854115 -0.273353 
-129.109329 61.845825 79.984871 6.963091 -11.674734 -150.486703 1.445159 -1.625788 4.058809 0.578806 -1.053365 1.671029 0.578806 -1.053364 1.671032 0.436975 -0.788448 1.254240 2.709803 -21.120087 1.561244 5.370443 -3.155172 3.619984 12.070276 -3.305496 -2.595581 56.643595 -10.989666 33.497000 -6.656112 -28.256534 -3.182955 -25.756126 2.033582 15.773719 -8.503895 -0.884320 -0.520718 -82.053480 16.141641 8.135488 12.482825 25.899898 10.742938 19.757350 11.998110 -25.087032 9.309816 -13.268193 -9.918016 5.307316 -15.109412 0.307165 -0.516254 13.576831 -0.711506 -0.533489 6.190595 0.085607 3.126588 16.290985 1.536441 -3.046337 -1.991607 8.334730 6.202925 -15.603787 -0.850896 5.105046 -4.340111 -0.240085 
-127.926926 60.183170 80.096428 5.801734 -11.548629 -149.724563 1.284599 -1.789532 4.022946 0.546892 -1.047898 1.668534 0.546892 -1.047899 1.668534 0.413023 -0.784439 1.252300 2.174912 -21.339335 1.816060 4.465348 -3.548038 3.918031 12.349392 -2.879371 -2.733657 57.848758 -11.089573 34.789333 -6.123945 -25.929343 0.485598 -26.371398 3.560511 17.473273 -8.461300 -0.884554 -0.509466 -80.680503 17.958883 10.548340 13.484046 26.170020 11.933731 19.805880 11.738315 -24.153830 8.148597 -14.606354 -10.477332 5.114210 -16.025618 1.115313 0.237350 12.938934 -0.807197 -1.025652 8.935543 0.120760 2.508947 14.100133 2.023942 -3.474296 0.376920 6.885743 4.801025 -14.574387 1.027572 5.067191 -5.039717 -0.376974 
-126.687317 58.560532 80.211372 4.685684 -11.259902 -148.591845 1.153638 -1.775825 3.698002 0.496166 -1.045942 1.655202 0.496165 -1.045942 1.655200 0.374950 -0.783120 1.242215 1.667032 -21.510805 2.037203 3.601804 -3.851863 4.166714 12.544517 -2.624321 -2.906089 59.509218 -11.055792 35.441288 -5.804336 -24.063988 4.943404 -26.594200 4.605413 18.419142 -8.338683 -0.711255 -0.392587 -79.260377 19.266155 13.058299 14.485337 26.582734 13.043238 19.468817 11.267679 -23.085935 6.934373 -15.619958 -11.381960 4.937134 -17.257892 1.963618 1.162027 12.006369 -0.805161 -1.635713 12.081018 0.097736 0.920494 13.130944 1.236981 -2.763890 0.453421 6.445261 3.966708 -13.669308 2.428624 4.265499 -4.348126 -0.478740 
-125.398918 56.874538 80.316849 3.506356 -11.403843 -147.630905 1.228190 -2.137027 3.647891 0.476427 -1.052039 1.635757 0.476426 -1.052039 1.635754 0.360130 -0.787761 1.227603 1.136516 -21.637276 2.215826 2.687291 -4.069447 4.335073 12.599867 -2.670595 -2.994273 61.431452 -10.633928 35.647768 -5.560880 -22.847881 9.914700 -26.509706 5.117305 19.006634 -8.176370 -0.479195 0.005612 -77.853413 20.136943 15.340084 15.451715 26.735667 14.157639 18.997613 10.829531 -21.875346 5.827344 -16.869502 -11.821130 4.798581 -18.848773 2.549308 2.290544 10.624916 -0.702064 -2.439825 15.793689 -0.034739 -0.477475 12.457188 0.371145 -2.195379 -1.384400 7.088140 3.290521 -13.234162 3.544161 3.653906 -2.252477 -0.147947 
-124.093460 55.261692 80.382141 2.280809 -11.202246 -146.417481 1.155935 -2.258619 3.552188 0.465804 -1.053652 1.599578 0.465806 -1.053653 1.599575 0.352104 -0.789027 1.200453 0.599436 -21.715412 2.335110 1.746294 -4.195625 4.396670 12.592325 -2.795592 -3.120392 63.322745 -10.142087 35.570553 -5.272240 -22.047046 14.852564 -26.197677 5.345438 19.877864 -7.951305 -0.441680 0.510103 -76.458312 20.922575 17.031913 16.289468 26.403684 15.290017 18.524199 10.488525 -20.533480 4.531417 -17.593988 -12.128385 4.686370 -20.874648 2.840828 3.658679 9.154372 -0.641892 -3.425055 19.755602 -0.160607 -2.227251 12.302469 -1.192810 -2.772597 -4.196695 9.908014 4.692813 -13.093701 3.971316 2.541432 0.475279 -0.212946 
-122.759697 53.730202 80.446320 0.847642 -10.861281 -145.035652 0.939290 -2.320130 3.409645 0.437053 -1.078034 1.558990 0.437053 -1.078035 1.558994 0.330532 -0.807417 1.169984 0.032215 -21.831894 2.425482 0.741744 -4.392531 4.397562 12.500133 -2.838522 -3.285226 65.122172 -10.037074 35.180211 -5.053241 -21.243109 19.334739 -25.740039 5.661529 21.492304 -7.907528 -0.364079 0.838029 -74.591997 21.947266 18.492259 16.928306 25.720018 16.339636 18.080831 9.967993 -19.024908 2.849289 -17.935809 -12.332271 4.731272 -23.508152 2.740547 5.349299 7.055584 -0.401327 -4.704780 24.472800 -0.409293 -4.222859 11.584398 -2.603286 -3.310946 -5.957005 12.585844 6.295677 -12.881411 3.526236 1.433351 2.060454 -0.247348 
-121.480736 52.279232 80.535362 -0.598455 -10.477216 -143.732780 0.750632 -2.300509 3.284917 0.386054 -1.134315 1.556280 0.386053 -1.134316 1.556278 0.292422 -0.849761 1.167891 -0.578580 -21.979371 2.510581 -0.343319 -4.647631 4.377827 12.318925 -2.836783 -3.354359 67.095694 -10.122070 34.460490 -4.921895 -20.285464 23.130432 -25.278590 6.357030 23.954508 -7.957146 0.003043 1.117456 -72.293857 22.980182 20.001635 17.433438 24.901008 17.139571 17.650503 8.871963 -17.279632 0.899201 -17.615784 -12.155569 5.073300 -27.072788 1.807156 7.341356 3.867178 0.159519 -6.350712 30.414218 -0.929574 -5.771672 10.091498 -1.694888 -3.607020 -6.185386 12.217642 8.116175 -13.362873 2.698896 0.100103 2.991559 -0.167329 
-120.194344 50.856735 80.609222 -2.419119 -10.274076 -142.893705 0.395038 -2.668101 3.502877 0.351133 -1.208121 1.587938 0.351133 -1.208122 1.587937 0.266482 -0.905186 1.191602 -1.296275 -22.142519 2.640246 -1.608653 -4.932205 4.410914 12.014117 -3.414275 -3.152761 69.337109 -9.747680 33.854519 -4.606573 -19.417299 26.338184 -25.102837 7.534040 26.755762 -7.853381 0.601759 1.846165 -70.182851 23.567110 21.312465 17.827905 24.001455 17.592344 17.352594 7.312628 -15.399910 -1.619136 -16.914530 -11.200881 5.778003 -31.648365 -0.166794 9.278717 -0.870543 0.771698 -7.926184 37.996896 -1.568192 -7.301764 7.633673 1.573506 -3.529960 -6.126773 8.949362 8.794645 -13.087421 2.919651 -0.436889 3.237227 0.025618 
-118.910721 49.577003 80.612686 -4.360533 -9.647716 -142.429689 -0.328011 -2.973825 3.898006 0.360321 -1.229441 1.622438 0.360320 -1.229441 1.622447 0.273497 -0.921132 1.217509 -2.131749 -22.291960 2.843279 -3.065088 -5.192090 4.546562 11.717893 -4.303810 -2.704547 71.483824 -9.013783 33.301830 -3.856201 -18.708810 29.022082 -25.217907 8.895842 29.261838 -7.426524 0.795859 3.033194 -68.858436 23.913650 21.842448 17.990939 23.026653 17.692108 17.207217 5.672512 -13.684254 -4.877619 -15.295710 -9.874412 6.881748 -37.074861 -2.532305 11.484549 -5.923545 1.302209 -9.917134 45.939381 -2.556882 -9.960291 5.583199 3.945579 -2.827198 -6.377374 6.977752 9.203644 -12.353795 3.124204 -0.612355 3.470153 0.170679 
-117.187988 48.653404 80.458221 -5.303569 -8.308395 -142.179431 -0.737614 -2.360607 4.154654 0.414984 -1.173415 1.641938 0.414984 -1.173415 1.641939 0.314383 -0.878955 1.232215 -3.048348 -22.363759 3.114153 -4.646865 -5.308978 4.783780 11.560266 -4.979848 -2.269933 73.119518 -8.244869 32.672985 -2.449014 -18.132685 31.102216 -25.575788 10.122789 31.156205 -6.777523 0.006455 4.273240 -68.571309 24.472508 21.305373 17.932558 22.170135 17.507820 16.942841 4.234041 -12.348337 -7.968283 -12.113463 -9.326455 7.513760 -43.145530 -3.810833 13.921990 -10.007515 1.618256 -12.032645 52.778566 -3.731660 -12.029364 5.101715 4.376402 -2.391958 -6.579310 7.658191 9.575672 -10.824012 2.847818 -0.699044 2.793119 -0.156508 
